<svg width="200" height="100" viewBox="0 0 200 100" fill="none" xmlns="http://www.w3.org/2000/svg">
  <!-- Main cucumber body -->
  <ellipse cx="100" cy="50" rx="80" ry="30" fill="#2ECC40" stroke="#1B7A26" stroke-width="2"/>

  <!-- Darker green gradient effect -->
  <ellipse cx="95" cy="45" rx="75" ry="25" fill="#3ADF4F" opacity="0.7"/>

  <!-- Texture spots -->
  <circle cx="50" cy="40" r="4" fill="#1B7A26" opacity="0.4"/>
  <circle cx="70" cy="50" r="5" fill="#1B7A26" opacity="0.4"/>
  <circle cx="90" cy="42" r="4" fill="#1B7A26" opacity="0.4"/>
  <circle cx="110" cy="55" r="5" fill="#1B7A26" opacity="0.4"/>
  <circle cx="130" cy="45" r="4" fill="#1B7A26" opacity="0.4"/>
  <circle cx="150" cy="52" r="5" fill="#1B7A26" opacity="0.4"/>

  <circle cx="60" cy="58" r="4" fill="#1B7A26" opacity="0.4"/>
  <circle cx="85" cy="60" r="3" fill="#1B7A26" opacity="0.4"/>
  <circle cx="105" cy="35" r="4" fill="#1B7A26" opacity="0.4"/>
  <circle cx="125" cy="60" r="4" fill="#1B7A26" opacity="0.4"/>
  <circle cx="140" cy="38" r="3" fill="#1B7A26" opacity="0.4"/>

  <!-- Small spikes/bumps -->
  <line x1="45" y1="35" x2="43" y2="30" stroke="#1B7A26" stroke-width="2"/>
  <line x1="75" y1="30" x2="73" y2="25" stroke="#1B7A26" stroke-width="2"/>
  <line x1="95" y1="27" x2="93" y2="22" stroke="#1B7A26" stroke-width="2"/>
  <line x1="115" y1="30" x2="113" y2="25" stroke="#1B7A26" stroke-width="2"/>
  <line x1="135" y1="32" x2="133" y2="27" stroke="#1B7A26" stroke-width="2"/>
  <line x1="155" y1="35" x2="153" y2="30" stroke="#1B7A26" stroke-width="2"/>

  <line x1="50" y1="68" x2="48" y2="73" stroke="#1B7A26" stroke-width="2"/>
  <line x1="80" y1="72" x2="78" y2="77" stroke="#1B7A26" stroke-width="2"/>
  <line x1="100" y1="75" x2="98" y2="80" stroke="#1B7A26" stroke-width="2"/>
  <line x1="120" y1="72" x2="118" y2="77" stroke="#1B7A26" stroke-width="2"/>
  <line x1="145" y1="70" x2="143" y2="75" stroke="#1B7A26" stroke-width="2"/>

  <!-- Stem -->
  <path d="M 20 50 Q 15 45 12 38" stroke="#2C5F2D" stroke-width="3" fill="none"/>
  <path d="M 12 38 L 8 35 L 10 32 L 14 33 Z" fill="#2C5F2D"/>

  <!-- Highlight -->
  <ellipse cx="80" cy="38" rx="25" ry="8" fill="rgba(255, 255, 255, 0.3)"/>
</svg>
