<svg width="300" height="200" viewBox="0 0 300 200" fill="none" xmlns="http://www.w3.org/2000/svg">
  <!-- Base -->
  <rect x="20" y="140" width="260" height="50" fill="#8B4513" stroke="#654321" stroke-width="2"/>

  <!-- Glass panels -->
  <path d="M 50 140 L 50 80 L 150 30 L 250 80 L 250 140 Z" fill="rgba(173, 216, 230, 0.3)" stroke="#4A90A4" stroke-width="2"/>

  <!-- Roof frame -->
  <path d="M 50 80 L 150 30 L 250 80" stroke="#2C5F2D" stroke-width="4" fill="none"/>
  <line x1="50" y1="80" x2="50" y2="140" stroke="#2C5F2D" stroke-width="3"/>
  <line x1="250" y1="80" x2="250" y2="140" stroke="#2C5F2D" stroke-width="3"/>

  <!-- Vertical support beams -->
  <line x1="100" y1="55" x2="100" y2="140" stroke="#2C5F2D" stroke-width="3"/>
  <line x1="150" y1="30" x2="150" y2="140" stroke="#2C5F2D" stroke-width="3"/>
  <line x1="200" y1="55" x2="200" y2="140" stroke="#2C5F2D" stroke-width="3"/>

  <!-- Glass panel divisions -->
  <line x1="50" y1="110" x2="100" y2="110" stroke="#4A90A4" stroke-width="1" opacity="0.5"/>
  <line x1="100" y1="95" x2="150" y2="85" stroke="#4A90A4" stroke-width="1" opacity="0.5"/>
  <line x1="150" y1="85" x2="200" y2="95" stroke="#4A90A4" stroke-width="1" opacity="0.5"/>
  <line x1="200" y1="110" x2="250" y2="110" stroke="#4A90A4" stroke-width="1" opacity="0.5"/>

  <!-- Door -->
  <rect x="135" y="100" width="30" height="40" fill="#654321" stroke="#4A3A1A" stroke-width="2"/>
  <circle cx="160" cy="120" r="2" fill="#FFD700"/>

  <!-- Plants inside -->
  <ellipse cx="80" cy="130" rx="10" ry="15" fill="#2ECC40"/>
  <ellipse cx="95" cy="125" rx="8" ry="12" fill="#2ECC40"/>
  <ellipse cx="110" cy="128" rx="9" ry="14" fill="#2ECC40"/>

  <ellipse cx="190" cy="130" rx="10" ry="15" fill="#FF4444"/>
  <ellipse cx="205" cy="125" rx="8" ry="12" fill="#FF4444"/>
  <ellipse cx="220" cy="128" rx="9" ry="14" fill="#FF4444"/>

  <!-- Window reflection -->
  <path d="M 60 85 L 70 90 L 68 100 L 58 95 Z" fill="rgba(255, 255, 255, 0.5)"/>
  <path d="M 230 85 L 240 90 L 238 100 L 228 95 Z" fill="rgba(255, 255, 255, 0.5)"/>
</svg>
